<svg width="512" height="512" viewBox="115 115 495 495" fill="none" xmlns="http://www.w3.org/2000/svg">
<path opacity="0.996078" d="M539.784 179.385L545.102 184.703L545.101 185.522L549.6 190.841L553.277 198.618C555.591 205.196 556.539 211.748 556.122 218.274C555.705 224.143 554.198 230.016 551.596 235.888L532.312 267.445L524.924 283.017L516.706 305.141C510.979 324.123 508.227 343.103 508.452 362.079C508.703 380.644 511.958 399.206 518.217 417.766C521.973 428.955 526.875 440.144 532.924 451.332L542.326 467.293L552.137 482.025L555.813 491.44L558.049 505.977L555.369 521.748L551.674 530.353L547.16 537.319L536.91 547.569L531.582 551.263L521.338 555.778C513.964 557.972 506.592 558.662 499.219 557.851C491.985 556.795 484.753 554.209 477.524 550.094L468.52 543.551L444.782 530.474C433.321 525.026 421.858 520.67 410.395 517.407C389.514 511.725 368.63 509.563 347.741 510.925C329.037 512.011 310.33 515.99 291.62 522.865L271.952 531.079L260.069 537.236L235.068 552.417C227.284 555.675 219.501 557.049 211.72 556.54C205.714 556.272 199.71 554.641 193.707 551.644L187.568 547.966L179.794 541.012L179.795 540.193L174.478 534.055L169.982 524.641C167.888 518.228 167.076 511.812 167.547 505.396C167.935 499.935 169.307 494.471 171.661 489.01L176.586 479.994L185.2 467.288L191.768 454.994L200.801 434.507L206.143 418.529C212.474 396.814 214.956 375.106 213.587 353.402C212.762 336.339 209.367 319.277 203.408 302.22C199.735 291.439 194.968 280.66 189.11 269.883L179.3 253.511L173.984 246.554L170.305 239.597L167.04 229.771L165.617 220.149L166.234 218.305L165.826 216.668C166.189 209.159 168.246 201.648 171.995 194.135L176.098 187.578L186.348 177.328C199.054 168.385 211.754 164.821 224.448 166.637L239.187 170.715L248.192 175.619L258.013 182.98L275.611 193.199L292.394 200.962L312.862 208.31C332.923 214.321 352.988 216.757 373.058 215.614C392.034 214.636 411.015 210.656 429.998 203.672L457.042 191.356L488.599 172.072C496.931 168.54 505.259 167.165 513.586 167.947L526.688 171.209L533.237 174.478L538.965 179.386L539.784 179.385ZM467.821 256.666L466.183 256.667L458.393 263.639L455.115 265.28L448.148 270.613L430.935 280.461L419.053 285.799C401.57 292.917 384.092 297.033 366.616 298.145C347.777 298.985 329.077 296.139 310.518 289.608L293.325 282.255L282.685 276.534C279.684 273.533 276.683 271.626 273.681 270.81L264.269 263.039L263.45 263.04C262.36 261.404 261.541 261.131 260.994 262.225L274.08 280.229L285.522 302.331C292.329 318.433 296.27 334.674 297.344 351.055C297.877 361.976 297.182 373.033 295.258 384.23L291.965 398.977L287.854 412.087C284.569 420.828 280.463 429.843 275.538 439.131L263.228 458.804L255.848 467.002L256.256 468.231L257.486 467.82L260.355 464.95L263.634 463.308L271.422 457.157L281.667 451.001L304.615 439.508C322.643 431.844 340.667 427.727 358.689 427.161C378.348 426.046 398.14 429.436 418.062 437.332L442.211 449.181L460.627 461.857C461.444 463.221 462.127 463.357 462.673 462.264L452.859 449.169L446.729 438.937L437.33 419.699C431.069 404.144 427.537 388.585 426.735 373.022C425.392 353.64 428.006 334.388 434.582 315.269L445.258 290.683L454.695 274.702L462.079 264.864L463.721 261.585L466.59 258.715L467.821 256.666Z" fill="#44C6B2" stroke="#44C6B2"/>
<path opacity="0.419608" d="M541.422 179.384L548.375 187.156L554.097 197.798C556.819 205.167 557.766 212.538 556.938 219.91L556.113 225.645L552.415 236.707L550.773 239.985L548.723 242.035L547.901 244.494L542.569 251.462L538.464 259.657L536.414 261.707L534.36 267.034L532.72 268.674C532.171 271.405 530.802 274.136 528.616 276.87L521.224 294.898L515.882 310.876L510.527 338.322L509.673 369.039L512.512 392.379L519.037 416.946L523.12 428.407L524.347 429.635L525.571 434.139L526.797 435.366L532.517 448.465L534.97 451.738L542.325 465.655L544.78 468.11L546.007 470.975L552.14 479.568L553.773 484.481L554.999 485.708L558.262 497.99L558.659 509.459C558.377 517.376 555.91 525.296 551.26 533.22L546.339 538.959L546.338 539.778L538.957 547.159L538.139 547.158L532.809 551.67L520.927 557.008C514.645 558.707 508.364 559.397 502.085 559.077L493.487 557.858L482.023 553.776L457.058 537.831L432.09 525.983L414.077 519.451L399.747 515.78L379.889 512.322C379.451 513.36 378.973 513.428 378.456 512.529L354.292 511.737L352.654 512.148C352.245 511.358 351.835 511.357 351.426 512.15L347.946 511.539L327.259 514.224L298.993 521.218L280.555 528.202L279.326 529.431L266.624 534.771L264.983 536.411L259.657 538.464L255.968 541.334L249.822 544.21L247.772 546.259L237.526 552.414L227.283 556.112L216.428 557.966L204.348 556.547L194.114 552.872L185.928 547.967L176.519 538.558L176.52 537.739L172.431 532.829L168.754 524.233C166.796 517.409 166.122 510.584 166.729 503.758L167.966 496.795L172.485 484.913L180.69 471.798L182.741 469.747L185.204 464.011L186.844 462.37L190.129 454.996L191.36 453.765L202.036 428.361L209.85 399.275L212.746 373.06L212.339 371.422L212.764 358.317L212.355 356.679L212.767 355.04L211.148 337.842L207.891 320.644L201.363 299.355L189.924 273.158C187.689 270.702 186.326 268.247 185.838 265.79L183.792 263.745L180.524 257.195L175.208 250.239L170.301 242.054L167.443 235.095L165.406 226.496L165.008 215.03C165.37 208.341 167.153 201.649 170.355 194.956L171.996 193.315L176.1 185.939L185.529 176.509L197.414 169.534L206.018 166.657L216.668 165.416C217.076 166.262 217.486 166.261 217.896 165.415L221.582 165.82L223.22 165.409L232.229 167.036L243.281 171.529L269.473 188.701L281.753 194.42L282.981 195.647L301.4 203.407L323.917 210.345L351.353 214.41C351.763 213.617 352.172 213.617 352.581 214.408L358.314 214.811L359.952 214.4L361.591 214.808L363.229 214.396L365.687 214.802L367.326 214.391L368.962 214.799L392.309 212.725C395.315 211.302 398.318 210.752 401.322 211.077L402.142 210.257L409.924 209.019L426.311 204.086L445.979 195.873L448.848 193.822L452.126 192.999L453.766 191.359L468.927 183.56L470.977 181.51L480.403 176.176L484.503 172.895L490.648 170.021L501.915 166.937C502.35 167.973 502.828 168.042 503.347 167.139L505.806 166.728L507.443 167.135L509.9 166.722L511.539 167.131C511.949 166.338 512.359 166.338 512.767 167.129L514.2 167.741C514.638 166.704 515.116 166.635 515.634 167.536L527.508 170.389L534.466 174.067L540.603 179.384L541.422 179.384ZM539.988 179.589L539.169 179.59L533.441 174.682L526.892 171.413L513.79 168.151C505.328 167.343 496.862 168.717 488.393 172.276L456.836 191.56L429.793 203.878C410.945 210.724 391.966 214.705 372.852 215.82C352.921 216.66 332.991 214.226 313.067 208.515L292.598 201.166L275.815 193.403L258.217 183.184L248.396 175.824L239.391 170.92L224.652 166.841C211.821 164.944 198.985 168.508 186.142 177.533L175.892 187.783L171.789 194.34C168.231 201.716 166.175 209.227 165.621 216.872L166.438 218.509L165.617 220.148L167.244 229.975L170.509 239.802L174.188 246.759L179.504 253.715L189.314 270.087C195.037 280.728 199.802 291.507 203.612 302.424C209.599 319.346 212.993 336.406 213.791 353.606C215.133 375.173 212.515 396.882 205.937 418.732L200.596 434.711L191.562 455.199L184.995 467.492L176.381 480.198L171.455 489.213C169.265 494.677 167.894 500.139 167.342 505.6C167.061 511.88 168.011 518.295 170.186 524.845L174.681 534.26L179.999 540.397L179.998 541.216L187.772 548.17L193.911 551.848C199.913 554.572 205.918 556.203 211.924 556.744C219.568 557.28 227.215 555.907 234.863 552.621L259.863 537.439L271.747 531.284L291.414 523.071C310.261 516.223 328.968 512.244 347.536 511.129C368.56 509.741 389.582 511.901 410.599 517.611C422.063 520.875 433.525 525.23 444.986 530.678L468.724 543.756L477.728 550.298C484.822 554.114 492.054 556.699 499.423 558.056C506.522 558.593 513.758 557.904 521.133 555.984L531.376 551.467L536.704 547.775L546.954 537.525L551.467 530.557L555.163 521.953L558.049 505.977L556.017 491.644L552.342 482.231L542.53 467.497L533.128 451.536C526.861 440.348 521.958 429.161 518.421 417.97C512.164 399.138 508.909 380.576 508.655 362.283C508.132 343.171 510.747 324.192 516.502 305.346L524.717 283.221L532.107 267.651L551.391 236.094C554.128 230.083 555.637 224.212 555.916 218.478C556.47 211.925 555.658 205.373 553.481 198.822L549.804 191.045L545.305 185.726L545.306 184.907L539.988 179.589Z" fill="#2FC2AD" stroke="#2FC2AD"/>
<path opacity="0.419608" d="M467.618 256.462L466.795 258.511L463.925 261.381L462.283 264.66L454.901 274.497L445.462 290.479L434.787 315.065C428.076 334.321 425.324 353.572 426.53 372.82C427.386 388.382 430.919 403.94 437.126 419.495L446.524 438.735L452.655 448.965L462.674 462.265C462.126 463.522 461.376 463.317 460.422 461.653L442.007 448.977L417.857 437.128C398.208 429.451 378.553 426.061 358.895 426.956C340.874 427.741 322.848 431.858 304.82 439.305L281.873 450.798L271.627 456.952L263.838 463.104L260.56 464.746L257.69 467.616L256.052 468.027L256.052 466.798L263.435 458.6L275.743 438.927C280.669 429.912 284.774 420.897 288.059 411.884L292.17 398.773L295.462 384.026C297.414 372.965 297.972 361.908 297.14 350.851C296.147 334.608 292.206 318.366 285.318 302.128L273.876 280.026L260.994 262.225C261.542 260.969 262.291 261.172 263.246 262.837L264.065 262.836L273.477 270.607C276.479 271.64 279.48 273.549 282.48 276.329L293.121 282.052L310.314 289.405C329.146 296.1 347.981 298.945 366.823 297.941C384.297 297.102 401.774 292.987 419.258 285.595L431.139 280.257L448.353 270.409L455.321 265.077L458.6 263.435L466.387 256.464L467.618 256.462ZM463.72 260.767L454.296 266.921L451.835 269.382C448.557 270.476 445.005 272.665 441.18 275.945L418.642 287.029L398.566 294.014C389.007 296.481 379.176 298.131 369.073 298.962C358.697 299.52 348.459 299.122 338.359 297.767L315.84 292.47L304.377 288.387L295.371 284.302L294.144 283.074L290.869 282.26C287.595 279.532 284.595 277.898 281.865 277.355L273.68 271.63L272.861 270.812L269.587 269.178L266.723 266.314L265.494 266.725L269.993 272.044L279.396 287.186L286.75 302.74L294.098 324.029L297.353 342.865C298.171 343.137 298.035 343.547 296.942 344.094L298.565 356.378L296.9 380.134L293.194 398.568L291.964 400.616L289.495 410.448L282.103 428.477L280.873 429.708L275.125 442L271.844 446.1L268.56 452.656L260.356 464.132L261.585 463.721L267.735 458.39L272.652 455.927L278.8 451.416L300.929 439.923L302.567 439.921L305.027 438.28L323.874 431.706L342.307 427.998C342.853 426.907 343.4 426.905 343.944 427.998L345.583 427.177L353.775 426.348C363.606 425.245 373.435 425.507 383.262 427.134L401.688 430.799L412.332 434.064L437.711 445.501L447.533 451.225L449.988 453.68L452.444 454.495L454.899 456.95L458.173 458.584L452.449 450.4L446.318 440.167L445.909 438.121L443.047 434.439L434.876 416.428L428.758 395.548L426.32 377.529C425.23 376.985 425.092 376.576 425.913 376.302L425.919 370.568C424.827 370.023 424.692 369.614 425.51 369.34L425.513 366.882L425.52 361.968L425.112 359.102L428.418 333.706L432.531 318.139L434.175 313.221L435.404 311.992L436.229 307.896L445.671 287.818L448.543 284.129L451.416 277.982L453.466 275.931L457.57 268.555L462.491 262.815L463.72 260.767Z" fill="#2FC2AD" stroke="#2FC2AD"/>
</svg>
