<svg width="230" height="42" viewBox="0 0 230 42" fill="none" xmlns="http://www.w3.org/2000/svg">
<g clip-path="url(#clip0_11_10)">
<path d="M71.752 25.424C71.752 27.408 71.048 29.104 69.64 30.512C68.232 31.92 66.536 32.624 64.552 32.624H63.304C61.48 32.624 59.896 32.032 58.552 30.848C57.208 29.664 56.408 28.176 56.152 26.384H61.192C61.64 27.696 62.584 28.352 64.024 28.352C64.792 28.352 65.464 28.096 66.04 27.584C66.648 27.04 66.952 26.4 66.952 25.664C66.952 23.936 65.752 23.072 63.352 23.072C61.304 23.072 59.592 22.496 58.216 21.344C56.744 20.128 56.008 18.528 56.008 16.544C56.008 14.56 56.712 12.864 58.12 11.456C59.528 10.048 61.224 9.344 63.208 9.344H64.456C66.28 9.344 67.864 9.952 69.208 11.168C70.584 12.352 71.384 13.84 71.608 15.632H66.568C66.152 14.288 65.208 13.616 63.736 13.616C62.936 13.616 62.248 13.872 61.672 14.384C61.096 14.864 60.808 15.504 60.808 16.304C60.808 18.032 62.008 18.896 64.408 18.896C66.456 18.896 68.168 19.456 69.544 20.576C71.016 21.792 71.752 23.408 71.752 25.424ZM90.1953 25.28C90.1953 27.264 89.4913 28.96 88.0833 30.368C86.6753 31.776 84.9792 32.48 82.9952 32.48H81.7472C79.7632 32.48 78.0672 31.776 76.6592 30.368C75.2512 28.96 74.5472 27.264 74.5472 25.28V16.544C74.5472 14.56 75.2512 12.864 76.6592 11.456C78.0672 10.048 79.7632 9.344 81.7472 9.344H82.9952C84.9792 9.344 86.6753 10.048 88.0833 11.456C89.4913 12.864 90.1953 14.56 90.1953 16.544V19.088H85.3952C85.3952 17.392 85.2672 16.192 85.0112 15.488C84.5632 14.24 83.6512 13.616 82.2752 13.616C80.3232 13.616 79.3472 14.96 79.3472 17.648V23.984C79.3472 26.672 80.3872 28.016 82.4672 28.016C83.8752 28.016 84.7712 27.424 85.1552 26.24C85.3152 25.696 85.3952 24.512 85.3952 22.688H90.1953V25.28ZM106.816 11.6L102.88 14.768C102.4 13.68 101.504 13.136 100.192 13.136C98.3036 13.136 97.3596 14.048 97.3596 15.872L97.4076 32H92.3676L92.3196 8.96L97.3116 9.008L97.2636 10.208C97.9996 9.312 99.3756 8.864 101.392 8.864C103.696 8.864 105.504 9.776 106.816 11.6ZM124.366 25.28C124.366 27.264 123.662 28.96 122.254 30.368C120.846 31.776 119.15 32.48 117.166 32.48H115.918C113.934 32.48 112.238 31.776 110.83 30.368C109.422 28.96 108.718 27.264 108.718 25.28V16.544C108.718 14.56 109.422 12.864 110.83 11.456C112.238 10.048 113.934 9.344 115.918 9.344H117.166C119.15 9.344 120.846 10.048 122.254 11.456C123.662 12.864 124.366 14.56 124.366 16.544V23.168H113.518V23.984C113.518 25.488 113.854 26.544 114.526 27.152C115.198 27.76 116.302 28.064 117.838 28.064C118.702 28.064 119.294 27.136 119.614 25.28H124.366ZM119.566 19.664V18.128C119.566 15.44 118.526 14.096 116.446 14.096C114.494 14.096 113.518 15.44 113.518 18.128V19.616L119.566 19.664ZM143.326 25.28C143.326 27.264 142.622 28.96 141.214 30.368C139.806 31.776 138.11 32.48 136.126 32.48H134.878C132.894 32.48 131.198 31.776 129.79 30.368C128.382 28.96 127.678 27.264 127.678 25.28V16.544C127.678 14.56 128.382 12.864 129.79 11.456C131.198 10.048 132.894 9.344 134.878 9.344H136.126C138.11 9.344 139.806 10.048 141.214 11.456C142.622 12.864 143.326 14.56 143.326 16.544V23.168H132.478V23.984C132.478 25.488 132.814 26.544 133.486 27.152C134.158 27.76 135.262 28.064 136.798 28.064C137.662 28.064 138.254 27.136 138.574 25.28H143.326ZM138.526 19.664V18.128C138.526 15.44 137.486 14.096 135.406 14.096C133.454 14.096 132.478 15.44 132.478 18.128V19.616L138.526 19.664ZM162.574 16.064L162.526 32H157.822L157.774 17.168C157.774 14.48 156.734 13.136 154.654 13.136C152.766 13.136 151.822 14.048 151.822 15.872L151.87 32H146.83L146.782 8.96L151.774 9.008L151.726 10.208C152.462 9.312 153.838 8.864 155.854 8.864C157.838 8.864 159.454 9.568 160.702 10.976C161.95 12.352 162.574 14.048 162.574 16.064ZM181.715 25.28C181.715 27.264 181.011 28.96 179.603 30.368C178.195 31.776 176.499 32.48 174.515 32.48H173.267C171.283 32.48 169.587 31.776 168.179 30.368C166.771 28.96 166.067 27.264 166.067 25.28V16.544C166.067 14.56 166.771 12.864 168.179 11.456C169.587 10.048 171.283 9.344 173.267 9.344H174.515C176.499 9.344 178.195 10.048 179.603 11.456C181.011 12.864 181.715 14.56 181.715 16.544V23.168H170.867V23.984C170.867 25.488 171.203 26.544 171.875 27.152C172.547 27.76 173.651 28.064 175.187 28.064C176.051 28.064 176.643 27.136 176.963 25.28H181.715ZM176.915 19.664V18.128C176.915 15.44 175.875 14.096 173.795 14.096C171.843 14.096 170.867 15.44 170.867 18.128V19.616L176.915 19.664ZM201.155 0.799998L201.107 32H196.499V30.608C195.859 31.856 194.547 32.48 192.563 32.48C190.579 32.48 188.883 31.776 187.475 30.368C186.067 28.96 185.363 27.264 185.363 25.28V16.544C185.363 14.56 186.067 12.864 187.475 11.456C188.883 10.048 190.579 9.344 192.563 9.344H193.811C194.707 9.344 195.507 9.792 196.211 10.688L196.163 0.847998L201.155 0.799998ZM196.163 16.352C196.163 14.528 195.203 13.616 193.283 13.616C191.203 13.616 190.163 14.96 190.163 17.648V23.984C190.163 26.672 191.139 28.016 193.091 28.016C193.891 28.016 194.595 27.744 195.203 27.2C195.811 26.656 196.115 25.984 196.115 25.184L196.163 16.352ZM210.256 6.128H205.264L205.216 0.799998L210.208 0.847998L210.256 6.128ZM210.256 32H205.264V8.96H210.256V32ZM224.557 32.672C219.053 32.672 216.301 31.04 216.301 27.776V14.096H213.949L213.901 9.824H216.349L216.253 5.6H221.053L221.101 9.872H224.557V14.096H221.101V26.672C221.101 27.568 221.485 28.128 222.253 28.352C222.605 28.448 223.357 28.48 224.509 28.448L224.557 32.672Z" fill="currentColor"/>
<mask id="mask0_11_10" style="mask-type:luminance" maskUnits="userSpaceOnUse" x="-27" y="-29" width="102" height="102">
<path d="M74.8234 21.9117L23.9117 -29L-27 21.9117L23.9117 72.8234L74.8234 21.9117Z" fill="white"/>
</mask>
<g mask="url(#mask0_11_10)">
<path opacity="0.996078" d="M42.5265 2.68781L43.0543 3.2156L43.0543 3.29681L43.5009 3.82459L43.8663 4.59597C44.0964 5.24833 44.1911 5.89789 44.1506 6.54481C44.1099 7.12662 43.9611 7.70864 43.7039 8.29048L41.7957 11.4166L41.0651 12.9595L40.2529 15.1518C39.6873 17.0329 39.4166 18.9141 39.441 20.7952C39.468 22.6357 39.7927 24.4762 40.4153 26.3167C40.7889 27.4264 41.2761 28.5361 41.877 29.6459L42.8108 31.2292L43.7851 32.6908L44.1505 33.6245L44.3738 35.0658L44.1099 36.6289L43.7446 37.4816L43.2979 38.1716L42.2829 39.1866L41.7551 39.5522L40.7402 39.9986C40.0094 40.2153 39.2787 40.2829 38.5477 40.2017C37.8305 40.0961 37.1132 39.839 36.3961 39.4303L35.5028 38.7806L33.1482 37.4816C32.0114 36.9402 30.8745 36.5071 29.7378 36.1823C27.6672 35.6167 25.5966 35.4001 23.526 35.5327C21.6719 35.6383 19.8179 36.0307 17.9639 36.7101L16.015 37.5222L14.8378 38.1312L12.361 39.6333C11.5897 39.9554 10.8184 40.0908 10.047 40.0394C9.45156 40.0122 8.85614 39.8498 8.26071 39.5521L7.65171 39.1867L6.88028 38.4965L6.88028 38.4153L6.35249 37.8063L5.9058 36.8725C5.69743 36.2365 5.61621 35.6004 5.66228 34.9645C5.7001 34.4231 5.8355 33.8816 6.06824 33.3405L6.55541 32.4472L7.40794 31.1886L8.05767 29.9706L8.95081 27.9407L9.47859 26.3573C10.1038 24.2055 10.3474 22.0537 10.2093 19.902C10.1255 18.2104 9.78709 16.5187 9.19446 14.8271C8.8291 13.7579 8.35538 12.6888 7.77341 11.6197L6.79907 9.99568L6.2713 9.30547L5.90582 8.61537L5.5811 7.64092L5.43896 6.68686L5.49988 6.50413L5.45924 6.34178C5.49439 5.5975 5.69744 4.85311 6.0683 4.10876L6.47428 3.45918L7.48924 2.44421C8.7478 1.55915 10.0064 1.20727 11.265 1.38866L12.7265 1.79465L13.6198 2.28181L14.5942 3.01257L16.3399 4.0276L18.0045 4.79904L20.0344 5.52974C22.0237 6.12795 24.0132 6.3716 26.0026 6.26057C27.8837 6.16577 29.7648 5.77339 31.6459 5.08317L34.3255 3.86523L37.4517 1.95707C38.2772 1.60793 39.1026 1.47249 39.9281 1.55099L41.2274 1.87584L41.8769 2.20062L42.4453 2.68781L42.5265 2.68781ZM35.4014 10.3408L35.2389 10.3408L34.4675 11.031L34.1428 11.1933L33.4527 11.7212L31.7474 12.6956L30.5701 13.2233C28.8378 13.927 27.1056 14.3331 25.3732 14.4413C23.5057 14.5226 21.6517 14.2383 19.8111 13.5888L18.1059 12.858L17.0505 12.2896C16.7527 11.9918 16.4549 11.8024 16.1572 11.7212L15.2234 10.9498L15.1422 10.9498C15.0339 10.7875 14.9527 10.7603 14.8986 10.8687L16.1978 12.655L17.3346 14.8473C18.0113 16.4442 18.4038 18.0547 18.512 19.6787C18.5661 20.7614 18.4984 21.8575 18.309 22.9672L17.9842 24.4288L17.5782 25.728C17.2534 26.5941 16.8475 27.4873 16.3603 28.4075L15.1422 30.3563L14.4114 31.1683L14.4521 31.2901L14.5739 31.2495L14.858 30.9653L15.1829 30.8029L15.9542 30.194L16.9692 29.5849L19.2427 28.4481C21.0291 27.6904 22.8154 27.2843 24.6019 27.2302C26.5506 27.1219 28.513 27.4602 30.4889 28.2452L32.8841 29.4225L34.7111 30.6812C34.7924 30.8165 34.86 30.8301 34.9141 30.7217L33.9397 29.4225L33.3308 28.4075L32.397 26.4993C31.7745 24.9565 31.4226 23.4138 31.3414 21.8709C31.2061 19.9494 31.4631 18.0412 32.1128 16.1465L33.1684 13.7105L34.1021 12.1273L34.833 11.1528L34.9954 10.8279L35.2795 10.5438L35.4014 10.3408Z" fill="#44C6B2" stroke="#44C6B2"/>
<path opacity="0.419608" d="M42.689 2.68786L43.3791 3.45916L43.9475 4.5148C44.2182 5.24561 44.3129 5.97639 44.2317 6.70713L44.1505 7.27557L43.7851 8.37171L43.6227 8.69653L43.4197 8.89952L43.3385 9.14313L42.8107 9.83335L42.4047 10.6453L42.2017 10.8482L41.9987 11.3761L41.8363 11.5385C41.7822 11.8091 41.6468 12.0798 41.4304 12.3505L40.6996 14.1369L40.1718 15.7202L39.644 18.4404L39.5628 21.4854L39.8469 23.7994L40.4965 26.2355L40.9025 27.3722L41.0243 27.494L41.1461 27.9407L41.2678 28.0624L41.8364 29.3616L42.0799 29.6864L42.8106 31.0668L43.0542 31.3105L43.1762 31.5946L43.7851 32.4471L43.9475 32.9344L44.0692 33.0561L44.3941 34.2741L44.4347 35.411C44.4076 36.1959 44.164 36.9807 43.7039 37.7657L43.2167 38.3341L43.2167 38.4153L42.4859 39.1461L42.4048 39.146L41.8769 39.5927L40.6996 40.1205C40.077 40.2883 39.4544 40.3559 38.832 40.3235L37.9794 40.2017L36.8425 39.7957L34.3659 38.2123L31.8894 37.035L30.103 36.3854L28.682 36.0199L26.713 35.6748C26.6698 35.7777 26.6224 35.7844 26.571 35.6952L24.1755 35.614L24.0132 35.6546C23.9725 35.5761 23.9319 35.576 23.8914 35.6546L23.5463 35.5936L21.4959 35.8575L18.6946 36.5477L16.8676 37.2379L16.7459 37.3596L15.4873 37.8875L15.3248 38.05L14.797 38.2529L14.4317 38.537L13.8227 38.8214L13.6198 39.0243L12.6047 39.6333L11.5897 39.9988L10.5138 40.1813L9.31616 40.0393L8.3012 39.6738L7.48915 39.1866L6.55541 38.2529L6.55541 38.1717L6.14945 37.6845L5.78398 36.832C5.58918 36.1552 5.52154 35.4786 5.58094 34.8019L5.70276 34.1118L6.14945 32.9344L6.96137 31.6352L7.16441 31.4322L7.40794 30.8638L7.57037 30.7013L7.89524 29.9706L8.01706 29.8488L9.07263 27.3316L9.84394 24.4491L10.1281 21.8507L10.0876 21.6883L10.1282 20.3892L10.0875 20.2268L10.1282 20.0643L9.96577 18.3593L9.6409 16.654L8.99142 14.5428L7.85451 11.9445C7.63268 11.7009 7.49727 11.4573 7.44856 11.2137L7.24557 11.0107L6.92081 10.3611L6.39303 9.67087L5.90575 8.85897L5.6216 8.16874L5.41868 7.31608L5.37801 6.17936C5.41315 5.51628 5.58908 4.85314 5.90583 4.18996L6.06826 4.02753L6.47426 3.29674L7.408 2.36299L8.58535 1.67285L9.43793 1.38865L10.4936 1.26678C10.5341 1.35073 10.5748 1.35067 10.6153 1.26683L10.9808 1.3074L11.1431 1.26684L12.0364 1.42915L13.1325 1.8758L15.7309 3.58105L16.9489 4.14933L17.0707 4.27115L18.8976 5.04246L21.1306 5.7328L23.8508 6.13876C23.8913 6.06021 23.9319 6.06033 23.9725 6.13876L24.5409 6.17937L24.7032 6.13876L24.8658 6.17937L25.0281 6.13876L25.2718 6.17925L25.4342 6.13876L25.5965 6.17937L27.9107 5.97633C28.2085 5.83559 28.5061 5.78141 28.8039 5.81402L28.8852 5.7328L29.6565 5.61098L31.2804 5.1238L33.2292 4.31178L33.5134 4.10879L33.8383 4.02762L34.0007 3.86522L35.5028 3.09379L35.7058 2.89079L36.6396 2.36304L37.0456 2.03826L37.6545 1.75398L38.7711 1.44956C38.8143 1.55231 38.8617 1.55917 38.9131 1.46976L39.1568 1.42925L39.3191 1.46981L39.5627 1.42916L39.7252 1.46984C39.7657 1.39127 39.8064 1.39133 39.8469 1.46979L39.989 1.53066C40.0324 1.42788 40.0797 1.42107 40.1311 1.51044L41.3086 1.79466L41.9988 2.16005L42.6077 2.68785L42.689 2.68786ZM42.5468 2.70807L42.4656 2.70808L41.8972 2.22089L41.2476 1.89611L39.9484 1.57125C39.1094 1.49016 38.2703 1.62546 37.4312 1.97728L34.3051 3.88543L31.6255 5.10356C29.7579 5.78007 27.8769 6.17258 25.9822 6.28095C24.0065 6.36204 22.0305 6.11852 20.0548 5.55012L18.0247 4.8193L16.3602 4.04787L14.6144 3.03284L13.64 2.30208L12.7468 1.81494L11.2852 1.40893C10.0131 1.2195 8.74103 1.5713 7.46884 2.46456L6.45388 3.47952L6.04788 4.1291C5.69598 4.85992 5.49305 5.60419 5.43895 6.36201L5.52015 6.52442L5.43892 6.68684L5.60135 7.66119L5.92608 8.63565L6.29156 9.32575L6.81934 10.016L7.79366 11.64C8.36217 12.6956 8.83577 13.7646 9.2147 14.8473C9.81012 16.5255 10.1484 18.2171 10.2295 19.9223C10.3649 22.0604 10.1078 24.2122 9.45823 26.3775L8.93056 27.961L8.03731 29.991L7.3877 31.2089L6.53517 32.4675L6.04787 33.3606C5.83137 33.902 5.69609 34.4434 5.64191 34.9846C5.61476 35.6072 5.70967 36.2432 5.92605 36.8928L6.37273 37.8266L6.90052 38.4356L6.90052 38.5168L7.67195 39.207L8.28095 39.5723C8.87626 39.843 9.4718 40.0053 10.0672 40.0596C10.8251 40.1137 11.5829 39.9784 12.3408 39.6536L14.8174 38.1513L15.9948 37.5424L17.9435 36.7305C19.8111 36.0537 21.6651 35.6614 23.5057 35.553C25.5897 35.4177 27.6739 35.6342 29.758 36.2026C30.8948 36.5275 32.0316 36.9605 33.1684 37.5018L35.5231 38.8009L36.4163 39.4505C37.12 39.8296 37.8372 40.0867 38.568 40.222C39.2717 40.276 39.989 40.2085 40.7198 40.019L41.7348 39.5723L42.2626 39.207L43.2775 38.192L43.7241 37.5018L44.0896 36.6493L44.3738 35.0658L44.1708 33.6448L43.8054 32.7111L42.8311 31.2495L41.8972 29.6661C41.2748 28.5564 40.7875 27.4468 40.4356 26.337C39.8131 24.4694 39.4884 22.6289 39.4612 20.8155C39.4071 18.9209 39.6643 17.0397 40.2326 15.1721L41.0446 12.9797L41.7754 11.437L43.6836 8.3108C43.9542 7.7153 44.1031 7.13342 44.1301 6.565C44.1843 5.91543 44.1031 5.26588 43.8866 4.61623L43.5211 3.84485L43.0746 3.31708L43.0746 3.23586L42.5468 2.70807Z" fill="#2FC2AD" stroke="#2FC2AD"/>
<path opacity="0.419608" d="M35.3811 10.3206L35.2998 10.5236L35.0157 10.8078L34.8532 11.1326L34.1225 12.107L33.1887 13.6903L32.1331 16.1263C31.47 18.0345 31.1993 19.9426 31.321 21.8509C31.4077 23.3936 31.7596 24.9364 32.3767 26.4791L33.3105 28.3874L33.9195 29.4023L34.9142 30.7219C34.86 30.8464 34.7856 30.826 34.6908 30.6609L32.8639 29.4023L30.4685 28.2249C28.5198 27.4617 26.571 27.1234 24.6223 27.2099C22.8359 27.2857 21.0494 27.6918 19.2631 28.428L16.9895 29.5648L15.9746 30.1737L15.2031 30.7827L14.8783 30.9451L14.5941 31.2293L14.4318 31.2699L14.4317 31.1481L15.1626 30.3361L16.3805 28.3873C16.8678 27.4942 17.2738 26.6009 17.5984 25.7078L18.0045 24.4086L18.3292 22.947C18.5215 21.8507 18.5755 20.7547 18.4918 19.6585C18.3915 18.0481 17.999 16.4376 17.3144 14.8271L16.1776 12.6348L14.8986 10.8687C14.9528 10.7442 15.0271 10.7645 15.1219 10.9296L15.2031 10.9296L16.137 11.701C16.4347 11.8038 16.7324 11.9934 17.0301 12.2693L18.0857 12.8378L19.7909 13.5686C21.6585 14.2345 23.526 14.5186 25.3937 14.4212C27.1259 14.3399 28.858 13.934 30.5903 13.2032L31.7676 12.6754L33.4729 11.701L34.1631 11.1732L34.488 11.0108L35.2592 10.3206L35.3811 10.3206ZM34.9953 10.7469L34.0617 11.3559L33.818 11.5996C33.4932 11.7077 33.1413 11.9243 32.7624 12.249L30.5295 13.3452L28.54 14.0354C27.5927 14.279 26.6184 14.4414 25.6169 14.5226C24.5883 14.5768 23.5734 14.5362 22.572 14.4008L20.339 13.8731L19.2022 13.467L18.309 13.0611L18.1872 12.9393L17.8624 12.8582C17.5376 12.5874 17.24 12.4251 16.9693 12.3709L16.1572 11.8025L16.076 11.7213L15.7513 11.5589L15.467 11.2747L15.3452 11.3153L15.7918 11.8431L16.7256 13.3452L17.4565 14.888L18.1873 16.9992L18.512 18.8668C18.5931 18.8939 18.5797 18.9345 18.4714 18.9887L18.6337 20.2065L18.4713 22.5613L18.1059 24.3883L17.9842 24.5912L17.7406 25.5656L17.0099 27.3521L16.8881 27.4739L16.3197 28.6918L15.9948 29.0979L15.6701 29.7475L14.858 30.8842L14.9798 30.8436L15.5888 30.3158L16.076 30.0723L16.685 29.6257L18.8774 28.4889H19.0398L19.2835 28.3265L21.1511 27.6769L22.9779 27.3114C23.032 27.2033 23.0862 27.2031 23.1403 27.3115L23.3027 27.2303L24.1146 27.1491C25.0891 27.0408 26.0636 27.0679 27.0379 27.2303L28.8649 27.5956L29.9205 27.9205L32.4376 29.0572L33.4119 29.6257L33.6556 29.8693L33.8991 29.9504L34.1428 30.1941L34.4675 30.3564L33.8992 29.5445L33.2902 28.5294L33.2495 28.3265L32.9654 27.9611L32.1533 26.1747L31.5444 24.1042L31.3008 22.3177C31.1927 22.2636 31.179 22.223 31.2603 22.196L31.2602 21.6276C31.1519 21.5734 31.1385 21.5328 31.2196 21.5058V21.2621L31.2197 20.7749L31.179 20.4908L31.5038 17.9736L31.9098 16.4308L32.0722 15.9435L32.1939 15.8218L32.2753 15.4159L33.209 13.4266L33.4933 13.0611L33.7774 12.4521L33.9804 12.249L34.3864 11.5182L34.8736 10.9498L34.9953 10.7469Z" fill="#2FC2AD" stroke="#2FC2AD"/>
</g>
</g>
<defs>
<clipPath id="clip0_11_10">
<rect width="230" height="42" fill="white"/>
</clipPath>
</defs>
</svg>
