<svg width="42" height="42" viewBox="0 0 42 42" fill="none" xmlns="http://www.w3.org/2000/svg">
<g clip-path="url(#clip0_3_150)">
<path opacity="0.996078" d="M20.7488 5.39233H21.1842L21.2177 5.42583L21.6196 5.45932L22.0885 5.62678C22.4525 5.80095 22.7595 6.02981 23.0096 6.31339C23.2328 6.57016 23.4115 6.8716 23.5454 7.21769L24.0478 9.29425L24.3828 10.232L24.9521 11.4713C25.4947 12.4805 26.159 13.3681 26.945 14.134C27.7153 14.882 28.6084 15.5072 29.6244 16.0096C30.2362 16.3132 30.8949 16.57 31.6005 16.7799L32.6388 17.0478L33.6435 17.2488L34.1794 17.4832L34.866 17.9856L35.4019 18.7392L35.6029 19.2416L35.7033 19.7105V20.5478L35.6364 20.9163L35.4019 21.5191C35.1898 21.9099 34.9163 22.2392 34.5813 22.5072C34.2419 22.7595 33.84 22.9493 33.3756 23.0765L32.7392 23.177L31.2321 23.6124C30.5399 23.858 29.8923 24.1483 29.2895 24.4832C28.2021 25.104 27.2587 25.8687 26.4593 26.7775C25.7381 27.5858 25.1352 28.5124 24.6507 29.5574L24.1818 30.6962L23.9474 31.433L23.5454 33.0742C23.3601 33.5252 23.0978 33.8992 22.7584 34.1962C22.5016 34.4306 22.189 34.6092 21.8206 34.732L21.4187 34.8325L20.8158 34.866L20.7823 34.8325L20.3134 34.799L19.744 34.5981C19.3957 34.4217 19.0998 34.1928 18.8565 33.9115C18.6488 33.6726 18.4813 33.3934 18.3541 33.0742L18.1866 32.5048L18.0191 31.634L17.7847 30.8636L17.3158 29.6579L16.8804 28.7871C16.2507 27.6416 15.4636 26.6536 14.5191 25.823C13.7868 25.1598 12.9494 24.6016 12.0072 24.1483C11.4155 23.858 10.7791 23.6124 10.0981 23.4115L9.02631 23.1435L8.52392 23.0765L8.08851 22.9426L7.55263 22.6746L7.10047 22.3397L7.05023 22.2392L6.9665 22.189C6.674 21.8675 6.45071 21.4767 6.29665 21.0167L6.19617 20.5813V19.744C6.35023 18.8598 6.72424 18.1955 7.31818 17.7512L8.08851 17.3158L8.65789 17.1483L9.36124 17.0478L10.5 16.7464L11.5048 16.378L12.6435 15.8421C13.7108 15.2683 14.6319 14.5482 15.4067 13.6818C16.1435 12.8668 16.7576 11.929 17.2488 10.8684L17.8517 9.26075L18.3541 7.1842C18.5506 6.69967 18.8352 6.30334 19.2081 5.9952L19.878 5.59329L20.2799 5.45932L20.7153 5.42583L20.7488 5.39233ZM20.9665 11.488L20.8995 11.555L20.866 12.1579L20.799 12.3588L20.7321 12.8612L20.4306 13.9665L20.1627 14.6698C19.7384 15.6746 19.1914 16.5566 18.5215 17.3158C17.7847 18.1196 16.9027 18.7671 15.8756 19.2584L14.8708 19.6603L14.201 19.8612C13.9553 19.8612 13.7544 19.9059 13.5981 19.9952L12.8947 20.0622L12.8612 20.0957C12.7496 20.0734 12.7049 20.0957 12.7273 20.1627L14 20.3636L15.3732 20.799C16.311 21.1786 17.1372 21.681 17.8517 22.3062C18.3206 22.7305 18.7448 23.2105 19.1244 23.7464L19.5933 24.4832L19.9617 25.1866C20.185 25.6778 20.386 26.2137 20.5646 26.7942L20.866 28.1005L20.8995 28.7368L20.9665 28.7703L21 28.7033V28.4689L21.067 28.2679L21.134 27.6986L21.3014 27.0287L21.7703 25.622C22.1946 24.5726 22.7639 23.6683 23.4785 22.9091C24.2376 22.0606 25.1866 21.3907 26.3254 20.8995L27.799 20.3971L29.0718 20.1627C29.1611 20.185 29.1946 20.1627 29.1722 20.0957L28.2344 19.9617L27.5646 19.7942L26.3923 19.3923C25.4992 19.0127 24.7177 18.5215 24.0478 17.9186C23.1994 17.1818 22.5183 16.2887 22.0048 15.2392L21.4354 13.799L21.1675 12.7608L21.067 12.0574L21 11.8564V11.622L20.9665 11.488Z" fill="#44C6B2" stroke="#44C6B2"/>
<path opacity="0.419608" d="M20.8158 5.32535L21.4186 5.35884L22.0885 5.5598C22.5016 5.74959 22.8421 6.01195 23.11 6.34688L23.311 6.61482L23.6124 7.21769L23.6794 7.41865V7.58611L23.7464 7.72008L23.8134 8.22248L23.9808 8.72487V8.89233L24.1148 9.19377V9.32774C24.2041 9.46171 24.2599 9.62918 24.2823 9.83013L24.7177 10.8684L25.1531 11.7392L26.0574 13.0789L27.2799 14.3684L28.3516 15.2057L29.6244 15.9426L30.2607 16.244H30.3612L30.5957 16.378H30.6961L31.4665 16.6794L31.7009 16.7129L32.5717 16.9809H32.7727L32.9402 17.0478L33.543 17.1483L33.811 17.2823H33.9114L34.5478 17.6507L35.0335 18.1029C35.3461 18.4378 35.5693 18.862 35.7033 19.3756L35.7368 19.811L35.7703 19.8445V20.4474L35.7368 20.4808L35.7033 20.8828L35.4354 21.5861C35.2478 21.9121 35.0189 22.1968 34.7488 22.4402L34.3469 22.7416L33.7105 23.0431L32.0358 23.4115L30.5287 23.9474L29.5239 24.4163L28.787 24.8517L27.8325 25.5215C27.8571 25.5818 27.8403 25.6041 27.7823 25.5885L26.7607 26.5431L26.7105 26.6268C26.6614 26.6112 26.6446 26.6279 26.6603 26.677L26.4928 26.7942L25.7559 27.7488L24.8851 29.189L24.4162 30.2273V30.3277L24.1148 31.0646V31.1986L23.9808 31.5L23.9473 31.7679L23.8134 32.1364V32.3038L23.6459 32.9737L23.378 33.5431L23.0095 34.0622L22.4569 34.4976L21.8875 34.7655L21.3516 34.8995H20.5813L20.5478 34.866L20.1794 34.8325L19.677 34.6316C19.3175 34.4328 19.0105 34.1816 18.7559 33.878L18.5215 33.5431L18.2201 32.8732L18.0191 32.0024V31.8349L17.8851 31.5V31.366L17.7177 30.9306V30.8301L17.1148 29.3564L16.244 27.8493L15.2894 26.6603L15.2057 26.61L14.6866 26.0574L14.6028 26.0072L14.5526 25.9234L13.7823 25.2871L12.9449 24.7177L11.8062 24.1148L10.2655 23.512C10.0735 23.503 9.91719 23.4584 9.79661 23.378H9.62915L9.22724 23.244L8.72484 23.177L8.18896 23.0431L7.78705 22.8756L7.35164 22.6076L6.86599 22.1555C6.60698 21.8675 6.40602 21.5214 6.26312 21.1172V20.9832L6.12915 20.5143V19.744L6.33011 18.9737L6.56456 18.5048L6.94972 18.0191C7.00108 18.037 7.01783 18.0202 6.99996 17.9689L7.16743 17.8349L7.21767 17.7512L7.65307 17.4497L8.28944 17.1818L10.0646 16.8134L10.8014 16.5454H10.9019L11.9736 16.11L13.1794 15.4737L14.4689 14.5191C14.4532 14.47 14.47 14.4533 14.5191 14.4689L14.7703 14.2512L14.8205 14.1675L14.9043 14.1172L14.9545 14.0335L15.0717 13.9497L15.122 13.866L15.2057 13.8158L16.0765 12.7775C16.1413 12.5966 16.2417 12.4515 16.378 12.3421V12.2751L16.6459 11.9067L17.1148 11.0359L17.5837 9.89712L17.6172 9.69616L17.7177 9.5287V9.39473L18.0191 8.45693V8.28946L18.1866 7.68659L18.2201 7.38516L18.354 7.01674L18.689 6.43061C18.7492 6.45517 18.7716 6.43843 18.7559 6.38037L18.8397 6.26315L18.9234 6.21291L19.0071 6.09568L19.0909 6.04544C19.0752 5.99632 19.092 5.97957 19.1411 5.9952L19.2248 5.96171C19.2003 5.90142 19.217 5.8791 19.2751 5.89473L19.878 5.5263L20.3134 5.39233L20.7823 5.35884L20.8158 5.32535ZM20.7655 5.39233L20.732 5.42583L20.2966 5.45932L19.8947 5.59329L19.2248 5.9952C18.8453 6.3078 18.555 6.70972 18.354 7.20095L17.8516 9.2775L17.2488 10.8852C16.7575 11.9346 16.1435 12.8724 15.4067 13.6986C14.6252 14.547 13.7097 15.2616 12.6603 15.8421L11.5215 16.378L10.5167 16.7464L9.37795 17.0478L8.6746 17.1483L8.10523 17.3158L7.33489 17.7512C6.73202 18.1978 6.35244 18.8676 6.19614 19.7608V20.5981L6.29661 21.0335C6.45291 21.4801 6.6762 21.8708 6.96647 22.2057L7.06695 22.2392L7.10044 22.3397L7.56934 22.6746L8.10523 22.9426L8.54063 23.0765L9.04303 23.1435L10.1148 23.4115C10.7847 23.6124 11.421 23.858 12.0239 24.1483C12.9617 24.5949 13.799 25.1531 14.5358 25.823C15.4736 26.6491 16.2551 27.6427 16.8803 28.8038L17.3158 29.6746L17.7847 30.8804L18.0191 31.6507L18.1866 32.5215L18.354 33.0909C18.488 33.4035 18.6555 33.6826 18.8564 33.9282C19.102 34.1962 19.4035 34.4194 19.7607 34.5981L20.3301 34.799L20.799 34.8325L20.8325 34.866L21.4354 34.8325L21.8373 34.732C22.1945 34.5981 22.5071 34.4194 22.7751 34.1962C23.11 33.9059 23.3668 33.5375 23.5454 33.0909L23.9473 31.4497L24.1818 30.7129L24.6507 29.5742C25.1419 28.5247 25.7448 27.5981 26.4593 26.7942C27.2631 25.8788 28.2121 25.1084 29.3062 24.4832C29.9091 24.1483 30.5566 23.858 31.2488 23.6124L32.7559 23.177L33.3923 23.0765C33.8389 22.9426 34.2408 22.7528 34.598 22.5072C34.9106 22.2392 35.1786 21.9155 35.4019 21.5359L35.6363 20.933L35.7033 20.5646V19.7273L35.6028 19.2584L35.4019 18.756L34.866 17.9856L34.1961 17.4832L33.6603 17.2488L32.6555 17.0478L31.6172 16.7799C30.9027 16.5789 30.244 16.3222 29.6411 16.0096C28.614 15.496 27.7209 14.8708 26.9617 14.134C26.1579 13.3748 25.488 12.4928 24.9521 11.488L24.3827 10.2488L24.0478 9.31099L23.5454 7.23444C23.4114 6.87718 23.2328 6.57575 23.0095 6.33013C22.7639 6.03986 22.4625 5.80541 22.1052 5.62678L21.6363 5.45932L21.2344 5.42583L21.2009 5.39233H20.7655Z" fill="#2FC2AD" stroke="#2FC2AD"/>
<path opacity="0.419608" d="M20.9498 11.488L21 11.6053V11.8397L21.067 12.0407L21.1675 12.744L21.4354 13.7823L22.0048 15.2225C22.5184 16.2831 23.1938 17.1818 24.0311 17.9187C24.7032 18.5193 25.4847 19.0105 26.3756 19.3923L27.5479 19.7943L28.2177 19.9617L29.1723 20.0957C29.2013 20.1694 29.1622 20.1917 29.055 20.1627L27.7823 20.3971L26.3086 20.8995C25.19 21.3885 24.2466 22.0528 23.4785 22.8923C22.7729 23.6604 22.2035 24.5648 21.7704 25.6053L21.3015 27.012L21.134 27.6818L21.067 28.2512L21 28.4522V28.6866L20.9498 28.7703L20.8995 28.7201L20.8661 28.0837L20.5646 26.7775C20.3972 26.2081 20.1962 25.6722 19.9617 25.1699L19.5933 24.4665L19.1244 23.7297C18.7515 23.1982 18.3217 22.7238 17.835 22.3062C17.1294 21.6833 16.3032 21.1809 15.3565 20.799L13.9833 20.3636L12.7273 20.1627C12.6983 20.089 12.7373 20.0667 12.8445 20.0957L12.878 20.0622L13.5814 19.9952C13.7466 19.9148 13.9476 19.8702 14.1842 19.8612L14.8541 19.6603L15.8589 19.2584C16.9039 18.7627 17.7914 18.1096 18.5216 17.299C19.2026 16.551 19.7496 15.6691 20.1627 14.6531L20.4306 13.9498L20.7321 12.8445L20.7991 12.3421L20.8661 12.1411L20.8995 11.5383L20.9498 11.488ZM20.9665 11.823L20.8326 12.4593V12.6603C20.7432 12.8389 20.6874 13.0734 20.6651 13.3636L20.1962 14.7368L19.6603 15.8421C19.37 16.3333 19.0351 16.8022 18.6555 17.2488C18.2536 17.6954 17.8182 18.0973 17.3493 18.4545L16.2106 19.1579L15.5742 19.4593L15.0383 19.6603H14.9378L14.7704 19.7608C14.5247 19.7831 14.335 19.8389 14.201 19.9282L13.6316 20.0287H13.5646L13.3637 20.0957H13.1292L13.0957 20.1627L13.4976 20.1962L14.5024 20.4306L15.4402 20.7655L16.6125 21.3349L17.5168 21.9713C17.5614 21.949 17.5726 21.9713 17.5503 22.0383L18.1196 22.4737L19.0239 23.512L19.6268 24.4163L19.6603 24.5502L19.9617 25.0526L20.3972 26.0909V26.1914L20.6651 26.9282L20.6986 27.2297L20.8326 27.6316L20.9665 28.4354L21 28.3684L21.0335 27.8995L21.134 27.5981L21.201 27.1627L21.6364 25.7895L21.7034 25.7225L21.7369 25.555L22.2393 24.5167L22.8421 23.6124C22.8198 23.5455 22.8421 23.5231 22.9091 23.5455L22.9426 23.445L23.244 23.0766C23.6013 22.63 24.0144 22.2392 24.4833 21.9043L25.3876 21.3014L25.957 21L27.4641 20.4306L28.1005 20.2632H28.3015L28.4354 20.1962H28.6364L28.8373 20.1292L28.268 20.0287L27.5981 19.8612L27.4976 19.7943L27.2297 19.7608L26.1579 19.3589L25.0527 18.756L24.2153 18.1196C24.1484 18.1419 24.126 18.1308 24.1484 18.0861L23.9139 17.8517C23.8469 17.874 23.8246 17.8628 23.8469 17.8182L23.7464 17.7177L23.5455 17.5167L23.4115 17.4163L22.5072 16.244L22.0383 15.4402L21.9043 15.1722V15.0718L21.7704 14.8708L21.335 13.6651L21.3015 13.3971L21.1675 13.0287V12.8612L21.0335 12.3923L21 11.9569L20.9665 11.823Z" fill="#2FC2AD" stroke="#2FC2AD"/>
</g>
<defs>
<clipPath id="clip0_3_150">
<rect width="42" height="42" fill="white"/>
</clipPath>
</defs>
</svg>
