<svg width="85" height="16" viewBox="0 0 85 16" fill="none" xmlns="http://www.w3.org/2000/svg">
<path d="M7.872 12.312C7.872 13.304 7.52 14.152 6.816 14.856C6.112 15.56 5.264 15.912 4.272 15.912H3.648C2.736 15.912 1.944 15.616 1.272 15.024C0.599998 14.432 0.199998 13.688 0.0719984 12.792H2.592C2.816 13.448 3.288 13.776 4.008 13.776C4.392 13.776 4.728 13.648 5.016 13.392C5.32 13.12 5.472 12.8 5.472 12.432C5.472 11.568 4.872 11.136 3.672 11.136C2.648 11.136 1.792 10.848 1.104 10.272C0.367998 9.66398 -1.57952e-06 8.86398 -1.57952e-06 7.87197C-1.57952e-06 6.87998 0.351998 6.03198 1.056 5.32797C1.76 4.62397 2.608 4.27197 3.6 4.27197H4.224C5.136 4.27197 5.928 4.57597 6.6 5.18398C7.288 5.77598 7.688 6.51998 7.8 7.41598H5.28C5.072 6.74398 4.6 6.40798 3.864 6.40798C3.464 6.40798 3.12 6.53598 2.832 6.79198C2.544 7.03198 2.4 7.35197 2.4 7.75198C2.4 8.61598 3 9.04798 4.2 9.04798C5.224 9.04798 6.08 9.32798 6.768 9.88798C7.504 10.496 7.872 11.304 7.872 12.312ZM17.0936 12.24C17.0936 13.232 16.7416 14.08 16.0376 14.784C15.3336 15.488 14.4856 15.84 13.4936 15.84H12.8696C11.8776 15.84 11.0296 15.488 10.3256 14.784C9.62162 14.08 9.26962 13.232 9.26962 12.24V7.87197C9.26962 6.87998 9.62162 6.03198 10.3256 5.32797C11.0296 4.62397 11.8776 4.27197 12.8696 4.27197H13.4936C14.4856 4.27197 15.3336 4.62397 16.0376 5.32797C16.7416 6.03198 17.0936 6.87998 17.0936 7.87197V9.14398H14.6936C14.6936 8.29597 14.6296 7.69598 14.5016 7.34398C14.2776 6.71998 13.8216 6.40798 13.1336 6.40798C12.1576 6.40798 11.6696 7.07998 11.6696 8.42397V11.592C11.6696 12.936 12.1896 13.608 13.2296 13.608C13.9336 13.608 14.3816 13.312 14.5736 12.72C14.6536 12.448 14.6936 11.856 14.6936 10.944H17.0936V12.24ZM25.4038 5.39998L23.4358 6.98397C23.1958 6.43998 22.7478 6.16798 22.0918 6.16798C21.1478 6.16798 20.6758 6.62398 20.6758 7.53597L20.6998 15.6H18.1798L18.1558 4.07998L20.6518 4.10397L20.6278 4.70397C20.9958 4.25598 21.6838 4.03198 22.6918 4.03198C23.8438 4.03198 24.7478 4.48798 25.4038 5.39998ZM34.1792 12.24C34.1792 13.232 33.8272 14.08 33.1232 14.784C32.4192 15.488 31.5712 15.84 30.5792 15.84H29.9552C28.9632 15.84 28.1152 15.488 27.4112 14.784C26.7072 14.08 26.3552 13.232 26.3552 12.24V7.87197C26.3552 6.87998 26.7072 6.03198 27.4112 5.32797C28.1152 4.62397 28.9632 4.27197 29.9552 4.27197H30.5792C31.5712 4.27197 32.4192 4.62397 33.1232 5.32797C33.8272 6.03198 34.1792 6.87998 34.1792 7.87197V11.184H28.7552V11.592C28.7552 12.344 28.9232 12.872 29.2592 13.176C29.5952 13.48 30.1472 13.632 30.9152 13.632C31.3472 13.632 31.6432 13.168 31.8032 12.24H34.1792ZM31.7792 9.43198V8.66398C31.7792 7.31998 31.2592 6.64797 30.2192 6.64797C29.2432 6.64797 28.7552 7.31998 28.7552 8.66398V9.40798L31.7792 9.43198ZM43.6592 12.24C43.6592 13.232 43.3072 14.08 42.6032 14.784C41.8992 15.488 41.0512 15.84 40.0592 15.84H39.4352C38.4432 15.84 37.5952 15.488 36.8912 14.784C36.1872 14.08 35.8352 13.232 35.8352 12.24V7.87197C35.8352 6.87998 36.1872 6.03198 36.8912 5.32797C37.5952 4.62397 38.4432 4.27197 39.4352 4.27197H40.0592C41.0512 4.27197 41.8992 4.62397 42.6032 5.32797C43.3072 6.03198 43.6592 6.87998 43.6592 7.87197V11.184H38.2352V11.592C38.2352 12.344 38.4032 12.872 38.7392 13.176C39.0752 13.48 39.6272 13.632 40.3952 13.632C40.8272 13.632 41.1232 13.168 41.2832 12.24H43.6592ZM41.2592 9.43198V8.66398C41.2592 7.31998 40.7392 6.64797 39.6992 6.64797C38.7232 6.64797 38.2352 7.31998 38.2352 8.66398V9.40798L41.2592 9.43198ZM53.2832 7.63198L53.2592 15.6H50.9072L50.8832 8.18398C50.8832 6.83998 50.3632 6.16798 49.3232 6.16798C48.3792 6.16798 47.9072 6.62398 47.9072 7.53597L47.9312 15.6H45.4112L45.3872 4.07998L47.8832 4.10397L47.8592 4.70397C48.2272 4.25598 48.9152 4.03198 49.9232 4.03198C50.9152 4.03198 51.7232 4.38398 52.3472 5.08798C52.9712 5.77598 53.2832 6.62398 53.2832 7.63198ZM62.8536 12.24C62.8536 13.232 62.5016 14.08 61.7976 14.784C61.0936 15.488 60.2456 15.84 59.2536 15.84H58.6296C57.6376 15.84 56.7896 15.488 56.0856 14.784C55.3816 14.08 55.0296 13.232 55.0296 12.24V7.87197C55.0296 6.87998 55.3816 6.03198 56.0856 5.32797C56.7896 4.62397 57.6376 4.27197 58.6296 4.27197H59.2536C60.2456 4.27197 61.0936 4.62397 61.7976 5.32797C62.5016 6.03198 62.8536 6.87998 62.8536 7.87197V11.184H57.4296V11.592C57.4296 12.344 57.5976 12.872 57.9336 13.176C58.2696 13.48 58.8216 13.632 59.5896 13.632C60.0216 13.632 60.3176 13.168 60.4776 12.24H62.8536ZM60.4536 9.43198V8.66398C60.4536 7.31998 59.9336 6.64797 58.8936 6.64797C57.9176 6.64797 57.4296 7.31998 57.4296 8.66398V9.40798L60.4536 9.43198ZM72.5736 -2.52724e-05L72.5496 15.6H70.2456V14.904C69.9256 15.528 69.2696 15.84 68.2776 15.84C67.2856 15.84 66.4376 15.488 65.7336 14.784C65.0296 14.08 64.6776 13.232 64.6776 12.24V7.87197C64.6776 6.87998 65.0296 6.03198 65.7336 5.32797C66.4376 4.62397 67.2856 4.27197 68.2776 4.27197H68.9016C69.3496 4.27197 69.7496 4.49597 70.1016 4.94397L70.0776 0.0239744L72.5736 -2.52724e-05ZM70.0776 7.77598C70.0776 6.86398 69.5976 6.40798 68.6376 6.40798C67.5976 6.40798 67.0776 7.07998 67.0776 8.42397V11.592C67.0776 12.936 67.5656 13.608 68.5416 13.608C68.9416 13.608 69.2936 13.472 69.5976 13.2C69.9016 12.928 70.0536 12.592 70.0536 12.192L70.0776 7.77598ZM77.124 2.66397H74.628L74.604 -2.52724e-05L77.1 0.0239744L77.124 2.66397ZM77.124 15.6H74.628V4.07998H77.124V15.6ZM84.2747 15.936C81.5227 15.936 80.1467 15.12 80.1467 13.488V6.64797H78.9707L78.9467 4.51198H80.1707L80.1227 2.39998H82.5227L82.5467 4.53597H84.2747V6.64797H82.5467V12.936C82.5467 13.384 82.7387 13.664 83.1227 13.776C83.2987 13.824 83.6747 13.84 84.2507 13.824L84.2747 15.936Z" fill="currentColor"/>
</svg>
