<svg width="512" height="512" viewBox="0 0 102 102" fill="none" xmlns="http://www.w3.org/2000/svg">
<mask id="mask0_11_11" style="mask-type:luminance" maskUnits="userSpaceOnUse" x="0" y="0" width="102" height="102">
<path d="M101.823 50.9117L50.9117 0L2.38419e-06 50.9117L50.9117 101.823L101.823 50.9117Z" fill="white"/>
</mask>
<g mask="url(#mask0_11_11)">
<path opacity="0.996078" d="M69.5265 31.6878L70.0543 32.2156L70.0543 32.2968L70.5009 32.8246L70.8663 33.596C71.0964 34.2483 71.1911 34.8979 71.1505 35.5448C71.1099 36.1266 70.9611 36.7086 70.7039 37.2905L68.7957 40.4166L68.065 41.9595L67.2529 44.1518C66.6873 46.0329 66.4166 47.9141 66.441 49.7952C66.468 51.6357 66.7927 53.4762 67.4153 55.3167C67.7889 56.4264 68.2761 57.5361 68.877 58.6459L69.8108 60.2292L70.7851 61.6908L71.1505 62.6245L71.3738 64.0658L71.1099 65.6289L70.7446 66.4816L70.2979 67.1716L69.2829 68.1866L68.7551 68.5522L67.7402 68.9986C67.0094 69.2153 66.2786 69.2829 65.5477 69.2017C64.8305 69.0961 64.1132 68.839 63.3961 68.4303L62.5028 67.7806L60.1482 66.4816C59.0114 65.9402 57.8745 65.5071 56.7378 65.1823C54.6671 64.6167 52.5966 64.4001 50.526 64.5327C48.6719 64.6383 46.8179 65.0307 44.9639 65.7101L43.015 66.5222L41.8378 67.1312L39.361 68.6333C38.5897 68.9554 37.8184 69.0908 37.047 69.0394C36.4515 69.0122 35.8561 68.8498 35.2607 68.5521L34.6517 68.1867L33.8803 67.4965L33.8803 67.4153L33.3525 66.8063L32.9058 65.8725C32.6974 65.2365 32.6162 64.6004 32.6623 63.9645C32.7001 63.4231 32.8355 62.8816 33.0682 62.3405L33.5554 61.4472L34.4079 60.1886L35.0577 58.9706L35.9508 56.9407L36.4786 55.3573C37.1038 53.2055 37.3474 51.0537 37.2093 48.902C37.1255 47.2104 36.7871 45.5187 36.1944 43.8271C35.8291 42.7579 35.3554 41.6888 34.7734 40.6197L33.7991 38.9957L33.2713 38.3055L32.9058 37.6154L32.5811 36.6409L32.4389 35.6869L32.4999 35.5041L32.4592 35.3418C32.4944 34.5975 32.6974 33.8531 33.0683 33.1088L33.4743 32.4592L34.4892 31.4442C35.7478 30.5592 37.0064 30.2073 38.265 30.3887L39.7265 30.7947L40.6198 31.2818L41.5942 32.0126L43.3399 33.0276L45.0045 33.799L47.0344 34.5297C49.0237 35.128 51.0131 35.3716 53.0026 35.2606C54.8836 35.1658 56.7648 34.7734 58.6459 34.0832L61.3255 32.8652L64.4516 30.9571C65.2772 30.6079 66.1026 30.4725 66.9281 30.551L68.2274 30.8758L68.8769 31.2006L69.4453 31.6878L69.5265 31.6878ZM62.4014 39.3408L62.2389 39.3408L61.4675 40.031L61.1428 40.1933L60.4527 40.7212L58.7474 41.6956L57.5701 42.2233C55.8378 42.927 54.1056 43.3331 52.3732 43.4413C50.5057 43.5226 48.6517 43.2383 46.8111 42.5888L45.1059 41.858L44.0505 41.2896C43.7527 40.9918 43.4549 40.8024 43.1572 40.7212L42.2234 39.9498L42.1422 39.9498C42.0339 39.7875 41.9527 39.7603 41.8986 39.8687L43.1978 41.655L44.3346 43.8473C45.0113 45.4442 45.4038 47.0547 45.512 48.6787C45.5661 49.7614 45.4984 50.8575 45.309 51.9672L44.9842 53.4288L44.5782 54.728C44.2534 55.5941 43.8475 56.4873 43.3603 57.4075L42.1422 59.3563L41.4114 60.1683L41.4521 60.2901L41.5739 60.2495L41.858 59.9653L42.1829 59.8029L42.9542 59.194L43.9692 58.5849L46.2427 57.4481C48.0291 56.6904 49.8154 56.2843 51.6019 56.2302C53.5506 56.1219 55.513 56.4602 57.4889 57.2452L59.8841 58.4225L61.7111 59.6812C61.7924 59.8165 61.86 59.8301 61.9141 59.7217L60.9397 58.4225L60.3308 57.4075L59.397 55.4993C58.7745 53.9565 58.4226 52.4138 58.3414 50.8709C58.2061 48.9494 58.4631 47.0412 59.1128 45.1465L60.1684 42.7105L61.1021 41.1273L61.833 40.1528L61.9954 39.8279L62.2795 39.5438L62.4014 39.3408Z" fill="#44C6B2" stroke="#44C6B2"/>
<path opacity="0.419608" d="M69.6889 31.6879L70.3791 32.4592L70.9475 33.5148C71.2182 34.2456 71.3129 34.9764 71.2317 35.7071L71.1505 36.2756L70.7851 37.3717L70.6227 37.6965L70.4197 37.8995L70.3385 38.1431L69.8107 38.8333L69.4047 39.6453L69.2017 39.8482L68.9987 40.3761L68.8363 40.5385C68.7822 40.8091 68.6468 41.0798 68.4304 41.3505L67.6996 43.1369L67.1718 44.7202L66.644 47.4404L66.5628 50.4854L66.8469 52.7994L67.4965 55.2355L67.9025 56.3722L68.0243 56.494L68.1461 56.9407L68.2678 57.0624L68.8364 58.3616L69.0799 58.6864L69.8106 60.0668L70.0542 60.3105L70.1762 60.5946L70.7851 61.4471L70.9475 61.9344L71.0692 62.0561L71.3941 63.2741L71.4347 64.411C71.4076 65.1959 71.164 65.9807 70.7038 66.7657L70.2167 67.3341L70.2167 67.4153L69.4858 68.1461L69.4048 68.146L68.8768 68.5927L67.6996 69.1205C67.077 69.2883 66.4544 69.3559 65.832 69.3235L64.9794 69.2017L63.8425 68.7957L61.3659 67.2123L58.8894 66.035L57.103 65.3854L55.682 65.0199L53.713 64.6748C53.6698 64.7777 53.6224 64.7844 53.571 64.6952L51.1755 64.614L51.0131 64.6546C50.9725 64.5761 50.9319 64.576 50.8914 64.6546L50.5463 64.5936L48.4959 64.8575L45.6946 65.5477L43.8676 66.2379L43.7459 66.3596L42.4873 66.8875L42.3248 67.05L41.797 67.2529L41.4317 67.537L40.8227 67.8214L40.6198 68.0243L39.6047 68.6333L38.5897 68.9988L37.5138 69.1813L36.3162 69.0393L35.3012 68.6738L34.4892 68.1866L33.5554 67.2529V67.1717L33.1494 66.6845L32.784 65.832C32.5892 65.1552 32.5215 64.4786 32.5809 63.8019L32.7028 63.1118L33.1494 61.9344L33.9614 60.6352L34.1644 60.4322L34.4079 59.8638L34.5704 59.7013L34.8952 58.9706L35.0171 58.8488L36.0726 56.3316L36.8439 53.4491L37.1281 50.8507L37.0876 50.6883L37.1282 49.3892L37.0875 49.2268L37.1282 49.0643L36.9658 47.3593L36.6409 45.654L35.9914 43.5428L34.8545 40.9445C34.6327 40.7009 34.4973 40.4573 34.4486 40.2137L34.2456 40.0107L33.9208 39.3611L33.393 38.6709L32.9057 37.859L32.6216 37.1687L32.4187 36.3161L32.378 35.1794C32.4131 34.5163 32.5891 33.8531 32.9058 33.19L33.0683 33.0275L33.4743 32.2967L34.408 31.363L35.5853 30.6728L36.4379 30.3887L37.4935 30.2668C37.5341 30.3507 37.5748 30.3507 37.6153 30.2668L37.9808 30.3074L38.1431 30.2668L39.0364 30.4292L40.1325 30.8758L42.7309 32.5811L43.9489 33.1493L44.0707 33.2712L45.8976 34.0425L48.1306 34.7328L50.8508 35.1388C50.8913 35.0602 50.9319 35.0603 50.9725 35.1388L51.5409 35.1794L51.7032 35.1388L51.8658 35.1794L52.0281 35.1388L52.2718 35.1793L52.4342 35.1388L52.5965 35.1794L54.9107 34.9763C55.2085 34.8356 55.5061 34.7814 55.8039 34.814L55.8852 34.7328L56.6565 34.611L58.2804 34.1238L60.2292 33.3118L60.5134 33.1088L60.8383 33.0276L61.0007 32.8652L62.5028 32.0938L62.7058 31.8908L63.6396 31.363L64.0456 31.0383L64.6545 30.754L65.7711 30.4496C65.8143 30.5523 65.8617 30.5592 65.9131 30.4698L66.1568 30.4292L66.3191 30.4698L66.5627 30.4292L66.7252 30.4698C66.7657 30.3913 66.8064 30.3913 66.8469 30.4698L66.989 30.5307C67.0324 30.4279 67.0797 30.4211 67.1311 30.5104L68.3086 30.7947L68.9988 31.1601L69.6077 31.6878L69.6889 31.6879ZM69.5468 31.7081L69.4656 31.7081L68.8972 31.2209L68.2476 30.8961L66.9484 30.5713C66.1094 30.4902 65.2703 30.6255 64.4312 30.9773L61.3051 32.8854L58.6255 34.1036C56.7579 34.7801 54.8769 35.1726 52.9822 35.281C51.0065 35.362 49.0305 35.1185 47.0548 34.5501L45.0247 33.8193L43.3602 33.0479L41.6144 32.0328L40.64 31.3021L39.7468 30.8149L38.2852 30.4089C37.0131 30.2195 35.741 30.5713 34.4688 31.4646L33.4539 32.4795L33.0479 33.1291C32.696 33.8599 32.4931 34.6042 32.439 35.362L32.5202 35.5244L32.4389 35.6868L32.6014 36.6612L32.9261 37.6356L33.2916 38.3258L33.8193 39.016L34.7937 40.64C35.3622 41.6956 35.8358 42.7646 36.2147 43.8473C36.8101 45.5255 37.1484 47.2171 37.2295 48.9223C37.3649 51.0604 37.1078 53.2122 36.4582 55.3775L35.9306 56.961L35.0373 58.991L34.3877 60.2089L33.5352 61.4675L33.0479 62.3606C32.8314 62.902 32.6961 63.4434 32.6419 63.9846C32.6148 64.6072 32.7097 65.2432 32.9261 65.8928L33.3727 66.8266L33.9005 67.4356L33.9005 67.5168L34.6719 68.207L35.281 68.5723C35.8763 68.843 36.4718 69.0053 37.0672 69.0596C37.8251 69.1137 38.5829 68.9784 39.3408 68.6536L41.8174 67.1513L42.9948 66.5424L44.9435 65.7305C46.8111 65.0537 48.6651 64.6614 50.5057 64.553C52.5897 64.4177 54.6739 64.6342 56.758 65.2026C57.8948 65.5275 59.0316 65.9605 60.1684 66.5018L62.5231 67.8009L63.4163 68.4505C64.12 68.8296 64.8372 69.0867 65.568 69.222C66.2717 69.276 66.989 69.2085 67.7198 69.019L68.7348 68.5723L69.2626 68.207L70.2775 67.192L70.7241 66.5018L71.0896 65.6493L71.3738 64.0658L71.1708 62.6448L70.8054 61.7111L69.8311 60.2495L68.8972 58.6661C68.2748 57.5564 67.7875 56.4468 67.4356 55.337C66.8131 53.4694 66.4884 51.6289 66.4612 49.8155C66.4071 47.9209 66.6643 46.0397 67.2326 44.1721L68.0446 41.9797L68.7754 40.437L70.6836 37.3108C70.9542 36.7153 71.1031 36.1334 71.1301 35.565C71.1843 34.9154 71.1031 34.2659 70.8866 33.6162L70.5211 32.8449L70.0746 32.3171L70.0746 32.2359L69.5468 31.7081Z" fill="#2FC2AD" stroke="#2FC2AD"/>
<path opacity="0.419608" d="M62.3811 39.3206L62.2998 39.5236L62.0156 39.8078L61.8532 40.1326L61.1225 41.107L60.1886 42.6903L59.1331 45.1263C58.47 47.0345 58.1993 48.9426 58.321 50.8509C58.4077 52.3936 58.7596 53.9364 59.3767 55.4791L60.3105 57.3874L60.9195 58.4023L61.9142 59.7219C61.86 59.8464 61.7856 59.826 61.6908 59.6609L59.8639 58.4023L57.4685 57.2249C55.5198 56.4617 53.571 56.1234 51.6223 56.2099C49.8359 56.2857 48.0494 56.6918 46.2631 57.428L43.9895 58.5648L42.9746 59.1737L42.2031 59.7827L41.8783 59.9451L41.5941 60.2293L41.4318 60.2699L41.4317 60.1481L42.1626 59.3361L43.3805 57.3873C43.8678 56.4942 44.2738 55.6009 44.5984 54.7078L45.0045 53.4086L45.3292 51.947C45.5215 50.8507 45.5755 49.7547 45.4918 48.6585C45.3915 48.0481 44.999 46.4376 44.3144 44.8271L43.1776 42.6348L41.8986 40.8687C41.9528 40.7442 42.0271 40.7645 42.1219 40.9296L42.2031 40.9296L43.137 41.701C43.4347 41.8038 43.7324 41.9934 44.0301 42.2693L45.0857 42.8378L46.7909 43.5686C48.6585 44.2345 50.526 44.5186 52.3937 44.4212C54.1259 44.3399 55.858 43.934 57.5903 43.2032L58.7676 42.6754L60.4729 41.701L61.1631 41.1732L61.488 41.0108L62.2592 40.3206L62.3811 39.3206ZM61.9953 39.7469L61.0617 40.3559L60.818 40.5996C60.4931 40.7077 60.1412 40.9243 59.7624 41.249L57.5295 42.3452L55.54 43.0354C54.5927 43.279 53.6184 43.4414 52.6169 43.5226C51.5883 43.5768 50.5734 43.5362 49.572 43.4008L47.339 42.8731L46.2022 42.467L45.309 42.0611L45.1872 41.9393L44.8624 41.8582C44.5375 41.5874 44.24 41.4251 43.9693 41.3709L43.1572 40.8025L43.076 40.7213L42.7513 40.5589L42.467 40.2747L42.3452 40.3153L42.7918 40.8431L43.7256 42.3452L44.4564 43.888L45.1873 45.9992L45.512 47.8668C45.5931 47.8939 45.5797 47.9345 45.4714 47.9887L45.6337 49.2065L45.4713 51.5613L45.1059 53.3883L44.9842 53.5912L44.7406 54.5656L44.0099 56.3521L43.8881 56.4739L43.3197 57.6918L42.9948 58.0979L42.6701 58.7475L41.858 59.8842L41.9798 59.8436L42.5888 59.3158L43.076 59.0723L43.685 58.6257L45.8774 57.4889H46.0398L46.2834 57.3265L48.1511 56.6769L49.9779 56.3114C50.032 56.2033 50.0862 56.2031 50.1403 56.3115L50.3027 56.2303L51.1146 56.1491C52.0891 56.0408 53.0636 56.0679 54.0379 56.2303L55.8649 56.5956L56.9205 56.9205L59.4376 58.0572L60.4119 58.6257L60.6556 58.8693L60.8991 58.9504L61.1428 59.1941L61.4675 59.3564L60.8992 58.5445L60.2902 57.5294L60.2495 57.3265L59.9654 56.9611L59.1533 55.1747L58.5444 53.1042L58.3008 51.3177C58.1927 51.2636 58.179 51.223 58.2603 51.196L58.2602 50.6276C58.1519 50.5734 58.1385 50.5328 58.2196 50.5058V50.2621L58.2197 49.7749L58.179 49.4908L58.5038 46.9736L58.9098 45.4308L59.0722 44.9435L59.1939 44.8218L59.2753 44.4159L60.209 42.4266L60.4933 42.0611L60.7774 41.4521L60.9804 41.249L61.3864 40.5182L61.8736 39.9498L61.9953 39.7469Z" fill="#2FC2AD" stroke="#2FC2AD"/>
</g>
</svg>
